<svg xmlns="http://www.w3.org/2000/svg" viewBox="0 0 720 672.7"><path d="M530.94 340.68H595a213 213 0 00-112.07-168.15c3 4.65 5.8 9.28 8.55 14.41 22.34 40.32 36.84 94.13 39.46 153.74zM310.61 205.61c-19.29 34.81-32.05 81.94-34.67 134.74h88.33V151.64c-20.15 7.69-38.71 26.84-53.66 53.97zM310.76 514.54c14.8 27 33.36 46.13 53.51 54V379.65H276.1c2.46 52.82 15.36 99.94 34.66 134.89zM236.79 379.46h-64A210.57 210.57 0 00234 510.06a210.27 210.27 0 0051 37.55 166.91 166.91 0 01-8.56-14.4c-22.37-40.33-36.87-94.13-39.65-153.75zM403.45 379.65v188.71c20.3-7.69 38.87-26.84 53.8-53.82 19.29-34.95 31.91-82.09 34.67-134.89zM457.11 205.61c-14.79-27-33.36-46.09-53.66-54v188.74h88.33c-2.62-52.82-15.38-99.94-34.67-134.74z" transform="translate(0 -23.65)"/><path d="M383.78 23.65C198 23.65 47.43 174.2 47.43 360a335.62 335.62 0 0070.49 206.11L0 696.35h383.64C569.48 696.35 720 545.8 720 360S569.59 23.65 383.78 23.65zm.63 588.19c-138.93.16-251.65-112.43-251.76-251.36A251.56 251.56 0 01384 108.72c138.93-.12 251.65 112.42 251.76 251.35S523.35 611.72 384.41 611.84z" transform="translate(0 -23.65)"/><path d="M531 379.65c-2.63 59.58-17.13 113.42-39.5 153.75-2.75 4.93-5.65 9.87-8.54 14.4a213.79 213.79 0 0050.92-37.74 211.27 211.27 0 0061.22-130.4zM276.39 186.75c2.75-4.94 5.65-9.73 8.56-14.41a207.53 207.53 0 00-50.95 37.9 210.55 210.55 0 00-61.22 130.25h64c2.75-59.61 17.22-113.42 39.61-153.74z" transform="translate(0 -23.65)"/></svg>
